<svg fill="#fafafa" width="256px" height="256px" viewBox="-2.2 -2.2 26.40 26.40" xmlns="http://www.w3.org/2000/svg" id="memory-database" stroke="#fafafa" stroke-width="0.00022"><g id="SVGRepo_bgCarrier" stroke-width="0" transform="translate(0,0), scale(1)"><rect x="-2.2" y="-2.2" width="26.40" height="26.40" rx="0" fill="#0a0a0a" strokewidth="0"></rect></g><g id="SVGRepo_tracerCarrier" stroke-linecap="round" stroke-linejoin="round" stroke="#CCCCCC" stroke-width="0.088"></g><g id="SVGRepo_iconCarrier"><path d="M7 2H15V3H17V4H18V5H19V17H18V18H17V19H15V20H7V19H5V18H4V17H3V5H4V4H5V3H7V2M8 16V15H6V14H5V16H6V17H8V18H14V17H16V16H17V14H16V15H14V16H8M8 11V10H6V9H5V12H7V13H9V14H13V13H15V12H17V9H16V10H14V11H8M9 8V9H13V8H15V7H17V6H16V5H14V4H8V5H6V6H5V7H7V8H9Z"></path></g></svg>